<?xml version="1.0" standalone="no"?>
<!DOCTYPE svg PUBLIC "-//W3C//DTD SVG 1.1//EN" "http://www.w3.org/Graphics/SVG/1.1/DTD/svg11.dtd">
<svg version="1.1" width="1600" height="470" onload="init(evt)" viewBox="0 0 1600 470" xmlns="http://www.w3.org/2000/svg" xmlns:xlink="http://www.w3.org/1999/xlink">
<!-- Flame graph stack visualization. See https://github.com/brendangregg/FlameGraph for latest version, and http://www.brendangregg.com/flamegraphs.html for examples. -->
<!-- NOTES:  -->
<defs>
	<linearGradient id="background" y1="0" y2="1" x1="0" x2="0" >
		<stop stop-color="#eeeeee" offset="5%" />
		<stop stop-color="#eeeeb0" offset="95%" />
	</linearGradient>
</defs>
<style type="text/css">
	text { font-family:Verdana; font-size:12px; fill:rgb(0,0,0); }
	#search, #ignorecase { opacity:0.1; cursor:pointer; }
	#search:hover, #search.show, #ignorecase:hover, #ignorecase.show { opacity:1; }
	#subtitle { text-anchor:middle; font-color:rgb(160,160,160); }
	#title { text-anchor:middle; font-size:17px}
	#unzoom { cursor:pointer; }
	#frames > *:hover { stroke:black; stroke-width:0.5; cursor:pointer; }
	.hide { display:none; }
	.parent { opacity:0.5; }
</style>
<script type="text/ecmascript">
<![CDATA[
	"use strict";
	var details, searchbtn, unzoombtn, matchedtxt, svg, searching, currentSearchTerm, ignorecase, ignorecaseBtn;
	function init(evt) {
		details = document.getElementById("details").firstChild;
		searchbtn = document.getElementById("search");
		ignorecaseBtn = document.getElementById("ignorecase");
		unzoombtn = document.getElementById("unzoom");
		matchedtxt = document.getElementById("matched");
		svg = document.getElementsByTagName("svg")[0];
		searching = 0;
		currentSearchTerm = null;

		// use GET parameters to restore a flamegraphs state.
		var params = get_params();
		if (params.x && params.y)
			zoom(find_group(document.querySelector('[x="' + params.x + '"][y="' + params.y + '"]')));
                if (params.s) search(params.s);
	}

	// event listeners
	window.addEventListener("click", function(e) {
		var target = find_group(e.target);
		if (target) {
			if (target.nodeName == "a") {
				if (e.ctrlKey === false) return;
				e.preventDefault();
			}
			if (target.classList.contains("parent")) unzoom(true);
			zoom(target);
			if (!document.querySelector('.parent')) {
				// we have basically done a clearzoom so clear the url
				var params = get_params();
				if (params.x) delete params.x;
				if (params.y) delete params.y;
				history.replaceState(null, null, parse_params(params));
				unzoombtn.classList.add("hide");
				return;
			}

			// set parameters for zoom state
			var el = target.querySelector("rect");
			if (el && el.attributes && el.attributes.y && el.attributes._orig_x) {
				var params = get_params()
				params.x = el.attributes._orig_x.value;
				params.y = el.attributes.y.value;
				history.replaceState(null, null, parse_params(params));
			}
		}
		else if (e.target.id == "unzoom") clearzoom();
		else if (e.target.id == "search") search_prompt();
		else if (e.target.id == "ignorecase") toggle_ignorecase();
	}, false)

	// mouse-over for info
	// show
	window.addEventListener("mouseover", function(e) {
		var target = find_group(e.target);
		if (target) details.nodeValue = "Function: " + g_to_text(target);
	}, false)

	// clear
	window.addEventListener("mouseout", function(e) {
		var target = find_group(e.target);
		if (target) details.nodeValue = ' ';
	}, false)

	// ctrl-F for search
	// ctrl-I to toggle case-sensitive search
	window.addEventListener("keydown",function (e) {
		if (e.keyCode === 114 || (e.ctrlKey && e.keyCode === 70)) {
			e.preventDefault();
			search_prompt();
		}
		else if (e.ctrlKey && e.keyCode === 73) {
			e.preventDefault();
			toggle_ignorecase();
		}
	}, false)

	// functions
	function get_params() {
		var params = {};
		var paramsarr = window.location.search.substr(1).split('&');
		for (var i = 0; i < paramsarr.length; ++i) {
			var tmp = paramsarr[i].split("=");
			if (!tmp[0] || !tmp[1]) continue;
			params[tmp[0]]  = decodeURIComponent(tmp[1]);
		}
		return params;
	}
	function parse_params(params) {
		var uri = "?";
		for (var key in params) {
			uri += key + '=' + encodeURIComponent(params[key]) + '&';
		}
		if (uri.slice(-1) == "&")
			uri = uri.substring(0, uri.length - 1);
		if (uri == '?')
			uri = window.location.href.split('?')[0];
		return uri;
	}
	function find_child(node, selector) {
		var children = node.querySelectorAll(selector);
		if (children.length) return children[0];
	}
	function find_group(node) {
		var parent = node.parentElement;
		if (!parent) return;
		if (parent.id == "frames") return node;
		return find_group(parent);
	}
	function orig_save(e, attr, val) {
		if (e.attributes["_orig_" + attr] != undefined) return;
		if (e.attributes[attr] == undefined) return;
		if (val == undefined) val = e.attributes[attr].value;
		e.setAttribute("_orig_" + attr, val);
	}
	function orig_load(e, attr) {
		if (e.attributes["_orig_"+attr] == undefined) return;
		e.attributes[attr].value = e.attributes["_orig_" + attr].value;
		e.removeAttribute("_orig_"+attr);
	}
	function g_to_text(e) {
		var text = find_child(e, "title").firstChild.nodeValue;
		return (text)
	}
	function g_to_func(e) {
		var func = g_to_text(e);
		// if there's any manipulation we want to do to the function
		// name before it's searched, do it here before returning.
		return (func);
	}
	function update_text(e) {
		var r = find_child(e, "rect");
		var t = find_child(e, "text");
		var w = parseFloat(r.attributes.width.value) -3;
		var txt = find_child(e, "title").textContent.replace(/\([^(]*\)$/,"");
		t.attributes.x.value = parseFloat(r.attributes.x.value) + 3;

		// Smaller than this size won't fit anything
		if (w < 2 * 12 * 0.59) {
			t.textContent = "";
			return;
		}

		t.textContent = txt;
		var sl = t.getSubStringLength(0, txt.length);
		// check if only whitespace or if we can fit the entire string into width w
		if (/^ *$/.test(txt) || sl < w)
			return;

		// this isn't perfect, but gives a good starting point
		// and avoids calling getSubStringLength too often
		var start = Math.floor((w/sl) * txt.length);
		for (var x = start; x > 0; x = x-2) {
			if (t.getSubStringLength(0, x + 2) <= w) {
				t.textContent = txt.substring(0, x) + "..";
				return;
			}
		}
		t.textContent = "";
	}

	// zoom
	function zoom_reset(e) {
		if (e.attributes != undefined) {
			orig_load(e, "x");
			orig_load(e, "width");
		}
		if (e.childNodes == undefined) return;
		for (var i = 0, c = e.childNodes; i < c.length; i++) {
			zoom_reset(c[i]);
		}
	}
	function zoom_child(e, x, ratio) {
		if (e.attributes != undefined) {
			if (e.attributes.x != undefined) {
				orig_save(e, "x");
				e.attributes.x.value = (parseFloat(e.attributes.x.value) - x - 10) * ratio + 10;
				if (e.tagName == "text")
					e.attributes.x.value = find_child(e.parentNode, "rect[x]").attributes.x.value + 3;
			}
			if (e.attributes.width != undefined) {
				orig_save(e, "width");
				e.attributes.width.value = parseFloat(e.attributes.width.value) * ratio;
			}
		}

		if (e.childNodes == undefined) return;
		for (var i = 0, c = e.childNodes; i < c.length; i++) {
			zoom_child(c[i], x - 10, ratio);
		}
	}
	function zoom_parent(e) {
		if (e.attributes) {
			if (e.attributes.x != undefined) {
				orig_save(e, "x");
				e.attributes.x.value = 10;
			}
			if (e.attributes.width != undefined) {
				orig_save(e, "width");
				e.attributes.width.value = parseInt(svg.width.baseVal.value) - (10 * 2);
			}
		}
		if (e.childNodes == undefined) return;
		for (var i = 0, c = e.childNodes; i < c.length; i++) {
			zoom_parent(c[i]);
		}
	}
	function zoom(node) {
		var attr = find_child(node, "rect").attributes;
		var width = parseFloat(attr.width.value);
		var xmin = parseFloat(attr.x.value);
		var xmax = parseFloat(xmin + width);
		var ymin = parseFloat(attr.y.value);
		var ratio = (svg.width.baseVal.value - 2 * 10) / width;

		// XXX: Workaround for JavaScript float issues (fix me)
		var fudge = 0.0001;

		unzoombtn.classList.remove("hide");

		var el = document.getElementById("frames").children;
		for (var i = 0; i < el.length; i++) {
			var e = el[i];
			var a = find_child(e, "rect").attributes;
			var ex = parseFloat(a.x.value);
			var ew = parseFloat(a.width.value);
			var upstack;
			// Is it an ancestor
			if (0 == 0) {
				upstack = parseFloat(a.y.value) > ymin;
			} else {
				upstack = parseFloat(a.y.value) < ymin;
			}
			if (upstack) {
				// Direct ancestor
				if (ex <= xmin && (ex+ew+fudge) >= xmax) {
					e.classList.add("parent");
					zoom_parent(e);
					update_text(e);
				}
				// not in current path
				else
					e.classList.add("hide");
			}
			// Children maybe
			else {
				// no common path
				if (ex < xmin || ex + fudge >= xmax) {
					e.classList.add("hide");
				}
				else {
					zoom_child(e, xmin, ratio);
					update_text(e);
				}
			}
		}
		search();
	}
	function unzoom(dont_update_text) {
		unzoombtn.classList.add("hide");
		var el = document.getElementById("frames").children;
		for(var i = 0; i < el.length; i++) {
			el[i].classList.remove("parent");
			el[i].classList.remove("hide");
			zoom_reset(el[i]);
			if(!dont_update_text) update_text(el[i]);
		}
		search();
	}
	function clearzoom() {
		unzoom();

		// remove zoom state
		var params = get_params();
		if (params.x) delete params.x;
		if (params.y) delete params.y;
		history.replaceState(null, null, parse_params(params));
	}

	// search
	function toggle_ignorecase() {
		ignorecase = !ignorecase;
		if (ignorecase) {
			ignorecaseBtn.classList.add("show");
		} else {
			ignorecaseBtn.classList.remove("show");
		}
		reset_search();
		search();
	}
	function reset_search() {
		var el = document.querySelectorAll("#frames rect");
		for (var i = 0; i < el.length; i++) {
			orig_load(el[i], "fill")
		}
		var params = get_params();
		delete params.s;
		history.replaceState(null, null, parse_params(params));
	}
	function search_prompt() {
		if (!searching) {
			var term = prompt("Enter a search term (regexp " +
			    "allowed, eg: ^ext4_)"
			    + (ignorecase ? ", ignoring case" : "")
			    + "\nPress Ctrl-i to toggle case sensitivity", "");
			if (term != null) search(term);
		} else {
			reset_search();
			searching = 0;
			currentSearchTerm = null;
			searchbtn.classList.remove("show");
			searchbtn.firstChild.nodeValue = "Search"
			matchedtxt.classList.add("hide");
			matchedtxt.firstChild.nodeValue = ""
		}
	}
	function search(term) {
		if (term) currentSearchTerm = term;
		if (currentSearchTerm === null) return;

		var re = new RegExp(currentSearchTerm, ignorecase ? 'i' : '');
		var el = document.getElementById("frames").children;
		var matches = new Object();
		var maxwidth = 0;
		for (var i = 0; i < el.length; i++) {
			var e = el[i];
			var func = g_to_func(e);
			var rect = find_child(e, "rect");
			if (func == null || rect == null)
				continue;

			// Save max width. Only works as we have a root frame
			var w = parseFloat(rect.attributes.width.value);
			if (w > maxwidth)
				maxwidth = w;

			if (func.match(re)) {
				// highlight
				var x = parseFloat(rect.attributes.x.value);
				orig_save(rect, "fill");
				rect.attributes.fill.value = "rgb(230,0,230)";

				// remember matches
				if (matches[x] == undefined) {
					matches[x] = w;
				} else {
					if (w > matches[x]) {
						// overwrite with parent
						matches[x] = w;
					}
				}
				searching = 1;
			}
		}
		if (!searching)
			return;
		var params = get_params();
		params.s = currentSearchTerm;
		history.replaceState(null, null, parse_params(params));

		searchbtn.classList.add("show");
		searchbtn.firstChild.nodeValue = "Reset Search";

		// calculate percent matched, excluding vertical overlap
		var count = 0;
		var lastx = -1;
		var lastw = 0;
		var keys = Array();
		for (k in matches) {
			if (matches.hasOwnProperty(k))
				keys.push(k);
		}
		// sort the matched frames by their x location
		// ascending, then width descending
		keys.sort(function(a, b){
			return a - b;
		});
		// Step through frames saving only the biggest bottom-up frames
		// thanks to the sort order. This relies on the tree property
		// where children are always smaller than their parents.
		var fudge = 0.0001;	// JavaScript floating point
		for (var k in keys) {
			var x = parseFloat(keys[k]);
			var w = matches[keys[k]];
			if (x >= lastx + lastw - fudge) {
				count += w;
				lastx = x;
				lastw = w;
			}
		}
		// display matched percent
		matchedtxt.classList.remove("hide");
		var pct = 100 * count / maxwidth;
		if (pct != 100) pct = pct.toFixed(1)
		matchedtxt.firstChild.nodeValue = "Matched: " + pct + "%";
	}
]]>
</script>
<rect x="0.0" y="0" width="1600.0" height="470.0" fill="url(#background)"  />
<text id="title" x="800.00" y="24" >Unicorn PPC s1 (scale=1, 30s, 99Hz)</text>
<text id="details" x="10.00" y="453" > </text>
<text id="unzoom" x="10.00" y="24" class="hide">Reset Zoom</text>
<text id="search" x="1490.00" y="24" >Search</text>
<text id="ignorecase" x="1574.00" y="24" >ic</text>
<text id="matched" x="1490.00" y="453" > </text>
<g id="frames">
<g >
<title>int128_make64 (254,736,326 samples, 0.17%)</title><rect x="929.4" y="373" width="2.8" height="15.0" fill="rgb(251,212,50)" rx="2" ry="2" />
<text  x="932.45" y="383.5" ></text>
</g>
<g >
<title>helper_check_exit_request_ppc (2,348,318,428 samples, 1.58%)</title><rect x="1144.3" y="389" width="25.0" height="15.0" fill="rgb(218,63,15)" rx="2" ry="2" />
<text  x="1147.33" y="399.5" >h..</text>
</g>
<g >
<title>load_memop (364,682,894 samples, 0.25%)</title><rect x="1133.9" y="341" width="3.9" height="15.0" fill="rgb(211,28,6)" rx="2" ry="2" />
<text  x="1136.92" y="351.5" ></text>
</g>
<g >
<title>load_memop (1,386,277,946 samples, 0.93%)</title><rect x="1448.9" y="373" width="14.7" height="15.0" fill="rgb(211,28,6)" rx="2" ry="2" />
<text  x="1451.88" y="383.5" ></text>
</g>
<g >
<title>load_helper (4,051,388,252 samples, 2.72%)</title><rect x="827.4" y="357" width="43.0" height="15.0" fill="rgb(228,106,25)" rx="2" ry="2" />
<text  x="830.42" y="367.5" >load..</text>
</g>
<g >
<title>tcg_emit_op_ppc (311,815,348 samples, 0.21%)</title><rect x="762.8" y="357" width="3.3" height="15.0" fill="rgb(206,8,2)" rx="2" ry="2" />
<text  x="765.80" y="367.5" ></text>
</g>
<g >
<title>find_memory_mapping_ppc (1,479,444,537 samples, 0.99%)</title><rect x="660.1" y="373" width="15.7" height="15.0" fill="rgb(214,42,10)" rx="2" ry="2" />
<text  x="663.10" y="383.5" ></text>
</g>
<g >
<title>tb_htable_lookup_ppc (312,117,870 samples, 0.21%)</title><rect x="1547.0" y="389" width="3.4" height="15.0" fill="rgb(220,70,16)" rx="2" ry="2" />
<text  x="1550.04" y="399.5" ></text>
</g>
<g >
<title>qemu_thread_create (359,570,140 samples, 0.24%)</title><rect x="870.5" y="277" width="3.8" height="15.0" fill="rgb(254,227,54)" rx="2" ry="2" />
<text  x="873.53" y="287.5" ></text>
</g>
<g >
<title>tb_jmp_cache_hash_func (1,225,499,991 samples, 0.82%)</title><rect x="1239.3" y="357" width="13.0" height="15.0" fill="rgb(206,4,1)" rx="2" ry="2" />
<text  x="1242.29" y="367.5" ></text>
</g>
<g >
<title>load_helper (22,589,724,319 samples, 15.18%)</title><rect x="1265.4" y="389" width="239.9" height="15.0" fill="rgb(228,106,25)" rx="2" ry="2" />
<text  x="1268.45" y="399.5" >load_helper</text>
</g>
<g >
<title>cpu_restore_state_ppc (511,242,334 samples, 0.34%)</title><rect x="1532.5" y="373" width="5.4" height="15.0" fill="rgb(209,20,4)" rx="2" ry="2" />
<text  x="1535.46" y="383.5" ></text>
</g>
<g >
<title>mac-phoenix (148,777,115,527 samples, 99.97%)</title><rect x="10.0" y="405" width="1579.6" height="15.0" fill="rgb(223,85,20)" rx="2" ry="2" />
<text  x="13.01" y="415.5" >mac-phoenix</text>
</g>
<g >
<title>get_alignment_bits (306,787,230 samples, 0.21%)</title><rect x="1441.8" y="373" width="3.2" height="15.0" fill="rgb(220,70,16)" rx="2" ry="2" />
<text  x="1444.79" y="383.5" ></text>
</g>
<g >
<title>lduw_be_p (408,957,132 samples, 0.27%)</title><rect x="1459.3" y="357" width="4.3" height="15.0" fill="rgb(208,18,4)" rx="2" ry="2" />
<text  x="1462.26" y="367.5" ></text>
</g>
<g >
<title>[unknown] (359,558,995 samples, 0.24%)</title><rect x="870.5" y="149" width="3.8" height="15.0" fill="rgb(210,24,5)" rx="2" ry="2" />
<text  x="873.53" y="159.5" ></text>
</g>
<g >
<title>address_space_lookup_region (1,019,265,839 samples, 0.68%)</title><rect x="643.3" y="357" width="10.8" height="15.0" fill="rgb(231,123,29)" rx="2" ry="2" />
<text  x="646.26" y="367.5" ></text>
</g>
<g >
<title>main (460,415,578 samples, 0.31%)</title><rect x="870.4" y="341" width="4.9" height="15.0" fill="rgb(243,179,42)" rx="2" ry="2" />
<text  x="873.43" y="351.5" ></text>
</g>
<g >
<title>int128_min (513,010,778 samples, 0.34%)</title><rect x="932.2" y="373" width="5.4" height="15.0" fill="rgb(217,56,13)" rx="2" ry="2" />
<text  x="935.15" y="383.5" ></text>
</g>
<g >
<title>g_tree_find_node (204,366,298 samples, 0.14%)</title><rect x="1535.7" y="325" width="2.2" height="15.0" fill="rgb(246,191,45)" rx="2" ry="2" />
<text  x="1538.72" y="335.5" ></text>
</g>
<g >
<title>cpu_restore_state_from_tb (305,668,115 samples, 0.21%)</title><rect x="943.7" y="389" width="3.3" height="15.0" fill="rgb(233,130,31)" rx="2" ry="2" />
<text  x="946.74" y="399.5" ></text>
</g>
<g >
<title>__libc_start_main_impl (460,415,578 samples, 0.31%)</title><rect x="870.4" y="373" width="4.9" height="15.0" fill="rgb(218,63,15)" rx="2" ry="2" />
<text  x="873.43" y="383.5" ></text>
</g>
<g >
<title>tb_jmp_cache_hash_func (257,508,305 samples, 0.17%)</title><rect x="818.8" y="261" width="2.7" height="15.0" fill="rgb(206,4,1)" rx="2" ry="2" />
<text  x="821.75" y="271.5" ></text>
</g>
<g >
<title>address_space_lookup_region (1,731,409,227 samples, 1.16%)</title><rect x="909.5" y="373" width="18.3" height="15.0" fill="rgb(231,123,29)" rx="2" ry="2" />
<text  x="912.46" y="383.5" ></text>
</g>
<g >
<title>tlb_index (205,780,024 samples, 0.14%)</title><rect x="868.2" y="341" width="2.2" height="15.0" fill="rgb(207,10,2)" rx="2" ry="2" />
<text  x="871.25" y="351.5" ></text>
</g>
<g >
<title>find_memory_mapping_ppc (201,785,062 samples, 0.14%)</title><rect x="1541.7" y="357" width="2.1" height="15.0" fill="rgb(214,42,10)" rx="2" ry="2" />
<text  x="1544.65" y="367.5" ></text>
</g>
<g >
<title>tb_jmp_cache_hash_func (408,297,740 samples, 0.27%)</title><rect x="713.0" y="341" width="4.3" height="15.0" fill="rgb(206,4,1)" rx="2" ry="2" />
<text  x="716.01" y="351.5" ></text>
</g>
<g >
<title>tcg_emit_op_ppc (362,107,391 samples, 0.24%)</title><rect x="1556.4" y="389" width="3.9" height="15.0" fill="rgb(206,8,2)" rx="2" ry="2" />
<text  x="1559.44" y="399.5" ></text>
</g>
<g >
<title>enable_emu_timer (359,570,140 samples, 0.24%)</title><rect x="870.5" y="293" width="3.8" height="15.0" fill="rgb(230,116,27)" rx="2" ry="2" />
<text  x="873.53" y="303.5" ></text>
</g>
<g >
<title>__libc_start_call_main (460,415,578 samples, 0.31%)</title><rect x="870.4" y="357" width="4.9" height="15.0" fill="rgb(210,26,6)" rx="2" ry="2" />
<text  x="873.43" y="367.5" ></text>
</g>
<g >
<title>range_covers_byte (203,726,357 samples, 0.14%)</title><rect x="651.9" y="325" width="2.2" height="15.0" fill="rgb(227,104,24)" rx="2" ry="2" />
<text  x="654.91" y="335.5" ></text>
</g>
<g >
<title>bswap16 (408,957,132 samples, 0.27%)</title><rect x="1459.3" y="341" width="4.3" height="15.0" fill="rgb(253,222,53)" rx="2" ry="2" />
<text  x="1462.26" y="351.5" ></text>
</g>
<g >
<title>tlb_entry (581,191,160 samples, 0.39%)</title><rect x="1476.2" y="373" width="6.2" height="15.0" fill="rgb(239,157,37)" rx="2" ry="2" />
<text  x="1479.19" y="383.5" ></text>
</g>
<g >
<title>[unknown] (359,558,995 samples, 0.24%)</title><rect x="870.5" y="165" width="3.8" height="15.0" fill="rgb(210,24,5)" rx="2" ry="2" />
<text  x="873.53" y="175.5" ></text>
</g>
<g >
<title>__pthread_create_2_1 (359,558,995 samples, 0.24%)</title><rect x="870.5" y="261" width="3.8" height="15.0" fill="rgb(242,172,41)" rx="2" ry="2" />
<text  x="873.53" y="271.5" ></text>
</g>
<g >
<title>int128_sub (514,744,843 samples, 0.35%)</title><rect x="937.6" y="373" width="5.5" height="15.0" fill="rgb(228,108,25)" rx="2" ry="2" />
<text  x="940.60" y="383.5" ></text>
</g>
<g >
<title>uppc_cpu_init::{lambda (2,556,480,896 samples, 1.72%)</title><rect x="1562.4" y="389" width="27.2" height="15.0" fill="rgb(230,117,28)" rx="2" ry="2" />
<text  x="1565.44" y="399.5" >u..</text>
</g>
<g >
<title>operator (1,586,715,727 samples, 1.07%)</title><rect x="1572.7" y="373" width="16.9" height="15.0" fill="rgb(254,228,54)" rx="2" ry="2" />
<text  x="1575.74" y="383.5" ></text>
</g>
<g >
<title>address_space_translate (657,353,903 samples, 0.44%)</title><rect x="1125.9" y="325" width="6.9" height="15.0" fill="rgb(216,50,12)" rx="2" ry="2" />
<text  x="1128.86" y="335.5" ></text>
</g>
<g >
<title>[unknown] (359,558,995 samples, 0.24%)</title><rect x="870.5" y="53" width="3.8" height="15.0" fill="rgb(210,24,5)" rx="2" ry="2" />
<text  x="873.53" y="63.5" ></text>
</g>
<g >
<title>[unknown] (359,558,995 samples, 0.24%)</title><rect x="870.5" y="85" width="3.8" height="15.0" fill="rgb(210,24,5)" rx="2" ry="2" />
<text  x="873.53" y="95.5" ></text>
</g>
<g >
<title>tlb_index (1,327,850,895 samples, 0.89%)</title><rect x="1491.2" y="373" width="14.1" height="15.0" fill="rgb(207,10,2)" rx="2" ry="2" />
<text  x="1494.19" y="383.5" ></text>
</g>
<g >
<title>_start (460,415,578 samples, 0.31%)</title><rect x="870.4" y="389" width="4.9" height="15.0" fill="rgb(245,185,44)" rx="2" ry="2" />
<text  x="873.43" y="399.5" ></text>
</g>
<g >
<title>helper_lookup_tb_ptr_ppc (7,821,882,281 samples, 5.26%)</title><rect x="1169.3" y="389" width="83.0" height="15.0" fill="rgb(243,179,42)" rx="2" ry="2" />
<text  x="1172.26" y="399.5" >helper_lo..</text>
</g>
<g >
<title>cpu_get_tb_cpu_state (307,825,473 samples, 0.21%)</title><rect x="1234.9" y="357" width="3.3" height="15.0" fill="rgb(250,211,50)" rx="2" ry="2" />
<text  x="1237.94" y="367.5" ></text>
</g>
<g >
<title>[unknown] (309,618,757 samples, 0.21%)</title><rect x="871.1" y="37" width="3.2" height="15.0" fill="rgb(210,24,5)" rx="2" ry="2" />
<text  x="874.06" y="47.5" ></text>
</g>
<g >
<title>clone3 (359,558,995 samples, 0.24%)</title><rect x="870.5" y="229" width="3.8" height="15.0" fill="rgb(216,54,12)" rx="2" ry="2" />
<text  x="873.53" y="239.5" ></text>
</g>
<g >
<title>helper_ret_ldub_mmu_ppc (1,237,933,187 samples, 0.83%)</title><rect x="1252.3" y="389" width="13.1" height="15.0" fill="rgb(253,221,52)" rx="2" ry="2" />
<text  x="1255.31" y="399.5" ></text>
</g>
<g >
<title>find_memory_mapping_ppc (356,566,732 samples, 0.24%)</title><rect x="801.7" y="293" width="3.8" height="15.0" fill="rgb(214,42,10)" rx="2" ry="2" />
<text  x="804.68" y="303.5" ></text>
</g>
<g >
<title>section_covers_addr (452,709,581 samples, 0.30%)</title><rect x="923.0" y="357" width="4.8" height="15.0" fill="rgb(240,162,38)" rx="2" ry="2" />
<text  x="926.03" y="367.5" ></text>
</g>
<g >
<title>store_helper (2,242,905,771 samples, 1.51%)</title><rect x="1523.2" y="389" width="23.8" height="15.0" fill="rgb(217,56,13)" rx="2" ry="2" />
<text  x="1526.23" y="399.5" >s..</text>
</g>
<g >
<title>memop_size (1,186,243,105 samples, 0.80%)</title><rect x="1463.6" y="373" width="12.6" height="15.0" fill="rgb(236,146,35)" rx="2" ry="2" />
<text  x="1466.60" y="383.5" ></text>
</g>
<g >
<title>tcg_emit_op_ppc (414,001,238 samples, 0.28%)</title><rect x="761.7" y="373" width="4.4" height="15.0" fill="rgb(206,8,2)" rx="2" ry="2" />
<text  x="764.71" y="383.5" ></text>
</g>
<g >
<title>tb_lookup__cpu_state (5,319,281,295 samples, 3.57%)</title><rect x="1195.8" y="373" width="56.5" height="15.0" fill="rgb(234,136,32)" rx="2" ry="2" />
<text  x="1198.83" y="383.5" >tb_lo..</text>
</g>
<g >
<title>memory_region_get_iommu (202,407,417 samples, 0.14%)</title><rect x="1058.0" y="357" width="2.1" height="15.0" fill="rgb(239,160,38)" rx="2" ry="2" />
<text  x="1060.97" y="367.5" ></text>
</g>
<g >
<title>store_helper (314,893,687 samples, 0.21%)</title><rect x="755.1" y="373" width="3.4" height="15.0" fill="rgb(217,56,13)" rx="2" ry="2" />
<text  x="758.12" y="383.5" ></text>
</g>
<g >
<title>tlb_hit (626,092,104 samples, 0.42%)</title><rect x="1484.5" y="373" width="6.7" height="15.0" fill="rgb(220,70,16)" rx="2" ry="2" />
<text  x="1487.54" y="383.5" ></text>
</g>
<g >
<title>flatview_translate_ppc (356,454,971 samples, 0.24%)</title><rect x="626.9" y="373" width="3.7" height="15.0" fill="rgb(213,38,9)" rx="2" ry="2" />
<text  x="629.86" y="383.5" ></text>
</g>
<g >
<title>_int_malloc (6,679,630,979 samples, 4.49%)</title><rect x="799.5" y="389" width="70.9" height="15.0" fill="rgb(215,47,11)" rx="2" ry="2" />
<text  x="802.51" y="399.5" >_int_mal..</text>
</g>
<g >
<title>flatview_do_translate (679,503,716 samples, 0.46%)</title><rect x="682.4" y="357" width="7.2" height="15.0" fill="rgb(236,146,35)" rx="2" ry="2" />
<text  x="685.37" y="367.5" ></text>
</g>
<g >
<title>create_thread (359,558,995 samples, 0.24%)</title><rect x="870.5" y="245" width="3.8" height="15.0" fill="rgb(210,24,5)" rx="2" ry="2" />
<text  x="873.53" y="255.5" ></text>
</g>
<g >
<title>address_space_translate (256,170,888 samples, 0.17%)</title><rect x="1258.8" y="325" width="2.7" height="15.0" fill="rgb(216,50,12)" rx="2" ry="2" />
<text  x="1261.81" y="335.5" ></text>
</g>
<g >
<title>decode_sleb128 (203,673,535 samples, 0.14%)</title><rect x="944.8" y="373" width="2.2" height="15.0" fill="rgb(219,64,15)" rx="2" ry="2" />
<text  x="947.82" y="383.5" ></text>
</g>
<g >
<title>address_space_translate_internal (253,844,791 samples, 0.17%)</title><rect x="1121.0" y="341" width="2.7" height="15.0" fill="rgb(240,162,38)" rx="2" ry="2" />
<text  x="1123.98" y="351.5" ></text>
</g>
<g >
<title>all (148,817,394,052 samples, 100%)</title><rect x="10.0" y="421" width="1580.0" height="15.0" fill="rgb(213,39,9)" rx="2" ry="2" />
<text  x="13.00" y="431.5" ></text>
</g>
<g >
<title>[mac-phoenix] (608,719,889 samples, 0.41%)</title><rect x="625.8" y="389" width="6.5" height="15.0" fill="rgb(235,138,33)" rx="2" ry="2" />
<text  x="628.83" y="399.5" ></text>
</g>
<g >
<title>get_memop (259,365,381 samples, 0.17%)</title><rect x="1445.0" y="373" width="2.8" height="15.0" fill="rgb(231,121,29)" rx="2" ry="2" />
<text  x="1448.04" y="383.5" ></text>
</g>
<g >
<title>load_helper (4,626,065,657 samples, 3.11%)</title><rect x="1095.2" y="357" width="49.1" height="15.0" fill="rgb(228,106,25)" rx="2" ry="2" />
<text  x="1098.21" y="367.5" >load..</text>
</g>
<g >
<title>find_memory_mapping_ppc (2,628,242,727 samples, 1.77%)</title><rect x="799.5" y="357" width="27.9" height="15.0" fill="rgb(214,42,10)" rx="2" ry="2" />
<text  x="802.51" y="367.5" >f..</text>
</g>
<g >
<title>int128_min (198,417,662 samples, 0.13%)</title><rect x="655.7" y="357" width="2.1" height="15.0" fill="rgb(217,56,13)" rx="2" ry="2" />
<text  x="658.70" y="367.5" ></text>
</g>
<g >
<title>find_memory_mapping_ppc (359,007,032 samples, 0.24%)</title><rect x="1257.7" y="341" width="3.8" height="15.0" fill="rgb(214,42,10)" rx="2" ry="2" />
<text  x="1260.72" y="351.5" ></text>
</g>
<g >
<title>flatview_translate_ppc (256,170,888 samples, 0.17%)</title><rect x="1258.8" y="309" width="2.7" height="15.0" fill="rgb(213,38,9)" rx="2" ry="2" />
<text  x="1261.81" y="319.5" ></text>
</g>
<g >
<title>uppc_cpu_execute_fast (451,266,149 samples, 0.30%)</title><rect x="870.5" y="325" width="4.8" height="15.0" fill="rgb(206,6,1)" rx="2" ry="2" />
<text  x="873.53" y="335.5" ></text>
</g>
<g >
<title>load_helper (302,162,240 samples, 0.20%)</title><rect x="821.5" y="293" width="3.2" height="15.0" fill="rgb(228,106,25)" rx="2" ry="2" />
<text  x="824.48" y="303.5" ></text>
</g>
<g >
<title>flatview_translate_ppc (1,297,427,414 samples, 0.87%)</title><rect x="675.8" y="373" width="13.8" height="15.0" fill="rgb(213,38,9)" rx="2" ry="2" />
<text  x="678.81" y="383.5" ></text>
</g>
<g >
<title>helper_lookup_tb_ptr_ppc (2,109,104,986 samples, 1.42%)</title><rect x="695.0" y="373" width="22.3" height="15.0" fill="rgb(243,179,42)" rx="2" ry="2" />
<text  x="697.96" y="383.5" >h..</text>
</g>
<g >
<title>helper_be_lduw_mmu_ppc (7,076,041,981 samples, 4.75%)</title><rect x="1069.2" y="389" width="75.1" height="15.0" fill="rgb(220,69,16)" rx="2" ry="2" />
<text  x="1072.20" y="399.5" >helper_b..</text>
</g>
<g >
<title>full_ldub_mmu (1,037,201,187 samples, 0.70%)</title><rect x="1254.4" y="373" width="11.0" height="15.0" fill="rgb(229,112,26)" rx="2" ry="2" />
<text  x="1257.44" y="383.5" ></text>
</g>
<g >
<title>phys_page_find (756,405,079 samples, 0.51%)</title><rect x="1509.7" y="389" width="8.0" height="15.0" fill="rgb(254,228,54)" rx="2" ry="2" />
<text  x="1512.68" y="399.5" ></text>
</g>
<g >
<title>tb_tc_cmp (317,160,974 samples, 0.21%)</title><rect x="1553.1" y="389" width="3.3" height="15.0" fill="rgb(247,196,46)" rx="2" ry="2" />
<text  x="1556.07" y="399.5" ></text>
</g>
<g >
<title>load_helper (6,679,630,979 samples, 4.49%)</title><rect x="799.5" y="373" width="70.9" height="15.0" fill="rgb(228,106,25)" rx="2" ry="2" />
<text  x="802.51" y="383.5" >load_hel..</text>
</g>
<g >
<title>flatview_translate_ppc (657,353,903 samples, 0.44%)</title><rect x="1125.9" y="309" width="6.9" height="15.0" fill="rgb(213,38,9)" rx="2" ry="2" />
<text  x="1128.86" y="319.5" ></text>
</g>
<g >
<title>tcg_tb_lookup_ppc (306,545,505 samples, 0.21%)</title><rect x="1534.6" y="357" width="3.3" height="15.0" fill="rgb(246,193,46)" rx="2" ry="2" />
<text  x="1537.63" y="367.5" ></text>
</g>
<g >
<title>flatview_translate_ppc (260,050,841 samples, 0.17%)</title><rect x="1556.4" y="357" width="2.8" height="15.0" fill="rgb(213,38,9)" rx="2" ry="2" />
<text  x="1559.44" y="367.5" ></text>
</g>
<g >
<title>tb_lookup__cpu_state (1,593,490,981 samples, 1.07%)</title><rect x="700.4" y="357" width="16.9" height="15.0" fill="rgb(234,136,32)" rx="2" ry="2" />
<text  x="703.43" y="367.5" ></text>
</g>
<g >
<title>g_tree_lookup (306,545,505 samples, 0.21%)</title><rect x="1534.6" y="341" width="3.3" height="15.0" fill="rgb(227,105,25)" rx="2" ry="2" />
<text  x="1537.63" y="351.5" ></text>
</g>
<g >
<title>load_memop (254,194,864 samples, 0.17%)</title><rect x="743.7" y="357" width="2.7" height="15.0" fill="rgb(211,28,6)" rx="2" ry="2" />
<text  x="746.69" y="367.5" ></text>
</g>
<g >
<title>load_helper (729,374,385 samples, 0.49%)</title><rect x="1256.1" y="357" width="7.7" height="15.0" fill="rgb(228,106,25)" rx="2" ry="2" />
<text  x="1259.08" y="367.5" ></text>
</g>
<g >
<title>__bswap_16 (408,957,132 samples, 0.27%)</title><rect x="1459.3" y="325" width="4.3" height="15.0" fill="rgb(212,33,8)" rx="2" ry="2" />
<text  x="1462.26" y="335.5" ></text>
</g>
<g >
<title>flatview_translate_ppc (360,967,032 samples, 0.24%)</title><rect x="805.5" y="293" width="3.8" height="15.0" fill="rgb(213,38,9)" rx="2" ry="2" />
<text  x="808.47" y="303.5" ></text>
</g>
<g >
<title>find_memory_mapping_ppc (198,602,125 samples, 0.13%)</title><rect x="1129.1" y="277" width="2.1" height="15.0" fill="rgb(214,42,10)" rx="2" ry="2" />
<text  x="1132.10" y="287.5" ></text>
</g>
<g >
<title>tb_lookup__cpu_state (995,706,961 samples, 0.67%)</title><rect x="810.9" y="277" width="10.6" height="15.0" fill="rgb(234,136,32)" rx="2" ry="2" />
<text  x="813.91" y="287.5" ></text>
</g>
<g >
<title>[unknown] (359,558,995 samples, 0.24%)</title><rect x="870.5" y="197" width="3.8" height="15.0" fill="rgb(210,24,5)" rx="2" ry="2" />
<text  x="873.53" y="207.5" ></text>
</g>
<g >
<title>qemu_ram_block_from_host_ppc (261,908,635 samples, 0.18%)</title><rect x="1518.3" y="389" width="2.7" height="15.0" fill="rgb(222,82,19)" rx="2" ry="2" />
<text  x="1521.26" y="399.5" ></text>
</g>
<g >
<title>[unknown] (359,558,995 samples, 0.24%)</title><rect x="870.5" y="117" width="3.8" height="15.0" fill="rgb(210,24,5)" rx="2" ry="2" />
<text  x="873.53" y="127.5" ></text>
</g>
<g >
<title>address_space_translate_internal (203,909,389 samples, 0.14%)</title><rect x="1126.9" y="277" width="2.2" height="15.0" fill="rgb(240,162,38)" rx="2" ry="2" />
<text  x="1129.94" y="287.5" ></text>
</g>
<g >
<title>flatview_do_translate (256,170,888 samples, 0.17%)</title><rect x="1258.8" y="293" width="2.7" height="15.0" fill="rgb(236,146,35)" rx="2" ry="2" />
<text  x="1261.81" y="303.5" ></text>
</g>
<g >
<title>flatview_do_translate (606,509,161 samples, 0.41%)</title><rect x="1126.4" y="293" width="6.4" height="15.0" fill="rgb(236,146,35)" rx="2" ry="2" />
<text  x="1129.40" y="303.5" ></text>
</g>
<g >
<title>[unknown] (359,558,995 samples, 0.24%)</title><rect x="870.5" y="213" width="3.8" height="15.0" fill="rgb(210,24,5)" rx="2" ry="2" />
<text  x="873.53" y="223.5" ></text>
</g>
<g >
<title>address_space_translate (305,495,690 samples, 0.21%)</title><rect x="802.2" y="277" width="3.3" height="15.0" fill="rgb(216,50,12)" rx="2" ry="2" />
<text  x="805.22" y="287.5" ></text>
</g>
<g >
<title>address_space_translate_internal (2,362,226,877 samples, 1.59%)</title><rect x="633.9" y="373" width="25.1" height="15.0" fill="rgb(240,162,38)" rx="2" ry="2" />
<text  x="636.87" y="383.5" >a..</text>
</g>
<g >
<title>address_space_translate_internal (204,171,638 samples, 0.14%)</title><rect x="799.5" y="293" width="2.2" height="15.0" fill="rgb(240,162,38)" rx="2" ry="2" />
<text  x="802.51" y="303.5" ></text>
</g>
<g >
<title>[unknown] (260,050,841 samples, 0.17%)</title><rect x="1556.4" y="373" width="2.8" height="15.0" fill="rgb(210,24,5)" rx="2" ry="2" />
<text  x="1559.44" y="383.5" ></text>
</g>
<g >
<title>tb_htable_lookup_ppc (204,125,427 samples, 0.14%)</title><rect x="758.5" y="373" width="2.1" height="15.0" fill="rgb(220,70,16)" rx="2" ry="2" />
<text  x="761.46" y="383.5" ></text>
</g>
<g >
<title>address_space_translate (258,728,747 samples, 0.17%)</title><rect x="673.1" y="357" width="2.7" height="15.0" fill="rgb(216,50,12)" rx="2" ry="2" />
<text  x="676.06" y="367.5" ></text>
</g>
<g >
<title>page_find_alloc (204,290,490 samples, 0.14%)</title><rect x="1507.5" y="389" width="2.2" height="15.0" fill="rgb(245,188,45)" rx="2" ry="2" />
<text  x="1510.51" y="399.5" ></text>
</g>
<g >
<title>flatview_translate_ppc (2,424,454,701 samples, 1.63%)</title><rect x="799.5" y="325" width="25.8" height="15.0" fill="rgb(213,38,9)" rx="2" ry="2" />
<text  x="802.51" y="335.5" >f..</text>
</g>
<g >
<title>memop_size (254,770,399 samples, 0.17%)</title><rect x="862.8" y="341" width="2.7" height="15.0" fill="rgb(236,146,35)" rx="2" ry="2" />
<text  x="865.84" y="351.5" ></text>
</g>
<g >
<title>[unknown] (12,659,419,420 samples, 8.51%)</title><rect x="632.3" y="389" width="134.4" height="15.0" fill="rgb(210,24,5)" rx="2" ry="2" />
<text  x="635.29" y="399.5" >[unknown]</text>
</g>
<g >
<title>[unknown] (359,558,995 samples, 0.24%)</title><rect x="870.5" y="181" width="3.8" height="15.0" fill="rgb(210,24,5)" rx="2" ry="2" />
<text  x="873.53" y="191.5" ></text>
</g>
<g >
<title>[unknown] (359,558,995 samples, 0.24%)</title><rect x="870.5" y="133" width="3.8" height="15.0" fill="rgb(210,24,5)" rx="2" ry="2" />
<text  x="873.53" y="143.5" ></text>
</g>
<g >
<title>g_tree_find_node (308,188,905 samples, 0.21%)</title><rect x="689.6" y="373" width="3.3" height="15.0" fill="rgb(246,191,45)" rx="2" ry="2" />
<text  x="692.58" y="383.5" ></text>
</g>
<g >
<title>tlb_entry_is_empty (204,984,062 samples, 0.14%)</title><rect x="1482.4" y="373" width="2.1" height="15.0" fill="rgb(229,113,27)" rx="2" ry="2" />
<text  x="1485.36" y="383.5" ></text>
</g>
<g >
<title>flatview_do_translate (2,424,454,701 samples, 1.63%)</title><rect x="799.5" y="309" width="25.8" height="15.0" fill="rgb(236,146,35)" rx="2" ry="2" />
<text  x="802.51" y="319.5" >f..</text>
</g>
<g >
<title>range_covers_byte (254,851,652 samples, 0.17%)</title><rect x="925.1" y="341" width="2.7" height="15.0" fill="rgb(227,104,24)" rx="2" ry="2" />
<text  x="928.14" y="351.5" ></text>
</g>
<g >
<title>full_be_lduw_mmu (5,960,812,223 samples, 4.01%)</title><rect x="1081.0" y="373" width="63.3" height="15.0" fill="rgb(244,182,43)" rx="2" ry="2" />
<text  x="1084.04" y="383.5" >full_b..</text>
</g>
<g >
<title>load_memop (201,686,276 samples, 0.14%)</title><rect x="860.7" y="341" width="2.1" height="15.0" fill="rgb(211,28,6)" rx="2" ry="2" />
<text  x="863.70" y="351.5" ></text>
</g>
<g >
<title>[unknown] (359,558,995 samples, 0.24%)</title><rect x="870.5" y="101" width="3.8" height="15.0" fill="rgb(210,24,5)" rx="2" ry="2" />
<text  x="873.53" y="111.5" ></text>
</g>
<g >
<title>address_space_translate (2,628,242,727 samples, 1.77%)</title><rect x="799.5" y="341" width="27.9" height="15.0" fill="rgb(216,50,12)" rx="2" ry="2" />
<text  x="802.51" y="351.5" >a..</text>
</g>
<g >
<title>uppc_cpu_init::{lambda (516,014,214 samples, 0.35%)</title><rect x="793.5" y="373" width="5.5" height="15.0" fill="rgb(230,117,28)" rx="2" ry="2" />
<text  x="796.48" y="383.5" ></text>
</g>
<g >
<title>get_memop (251,465,611 samples, 0.17%)</title><rect x="858.0" y="341" width="2.7" height="15.0" fill="rgb(231,121,29)" rx="2" ry="2" />
<text  x="861.03" y="351.5" ></text>
</g>
<g >
<title>address_space_translate (252,513,012 samples, 0.17%)</title><rect x="1538.4" y="357" width="2.7" height="15.0" fill="rgb(216,50,12)" rx="2" ry="2" />
<text  x="1541.43" y="367.5" ></text>
</g>
<g >
<title>address_space_translate (209,614,665 samples, 0.14%)</title><rect x="763.3" y="325" width="2.3" height="15.0" fill="rgb(216,50,12)" rx="2" ry="2" />
<text  x="766.34" y="335.5" ></text>
</g>
<g >
<title>flatview_translate_ppc (4,473,308,518 samples, 3.01%)</title><rect x="1012.6" y="389" width="47.5" height="15.0" fill="rgb(213,38,9)" rx="2" ry="2" />
<text  x="1015.63" y="399.5" >flat..</text>
</g>
<g >
<title>uc_emu_start (451,234,297 samples, 0.30%)</title><rect x="870.5" y="309" width="4.8" height="15.0" fill="rgb(223,86,20)" rx="2" ry="2" />
<text  x="873.53" y="319.5" ></text>
</g>
<g >
<title>find_memory_mapping_ppc (862,518,799 samples, 0.58%)</title><rect x="1123.7" y="341" width="9.1" height="15.0" fill="rgb(214,42,10)" rx="2" ry="2" />
<text  x="1126.68" y="351.5" ></text>
</g>
<g >
<title>find_memory_mapping_ppc (260,887,313 samples, 0.18%)</title><rect x="762.8" y="341" width="2.8" height="15.0" fill="rgb(214,42,10)" rx="2" ry="2" />
<text  x="765.80" y="351.5" ></text>
</g>
<g >
<title>find_memory_mapping_ppc (6,030,380,596 samples, 4.05%)</title><rect x="948.6" y="389" width="64.0" height="15.0" fill="rgb(214,42,10)" rx="2" ry="2" />
<text  x="951.60" y="399.5" >find_me..</text>
</g>
<g >
<title>section_covers_addr (407,268,418 samples, 0.27%)</title><rect x="649.8" y="341" width="4.3" height="15.0" fill="rgb(240,162,38)" rx="2" ry="2" />
<text  x="652.75" y="351.5" ></text>
</g>
<g >
<title>address_space_translate_internal (6,380,370,799 samples, 4.29%)</title><rect x="875.3" y="389" width="67.8" height="15.0" fill="rgb(240,162,38)" rx="2" ry="2" />
<text  x="878.32" y="399.5" >address..</text>
</g>
<g >
<title>_FUN (3,038,946,007 samples, 2.04%)</title><rect x="766.7" y="389" width="32.3" height="15.0" fill="rgb(244,182,43)" rx="2" ry="2" />
<text  x="769.70" y="399.5" >_FUN</text>
</g>
<g >
<title>notdirty_write (303,761,185 samples, 0.20%)</title><rect x="1541.7" y="373" width="3.2" height="15.0" fill="rgb(245,188,45)" rx="2" ry="2" />
<text  x="1544.65" y="383.5" ></text>
</g>
<g >
<title>operator (2,522,931,793 samples, 1.70%)</title><rect x="766.7" y="373" width="26.8" height="15.0" fill="rgb(254,228,54)" rx="2" ry="2" />
<text  x="769.70" y="383.5" >o..</text>
</g>
<g >
<title>g_tree_find_node (651,491,068 samples, 0.44%)</title><rect x="1060.1" y="389" width="6.9" height="15.0" fill="rgb(246,191,45)" rx="2" ry="2" />
<text  x="1063.12" y="399.5" ></text>
</g>
<g >
<title>[unknown] (359,558,995 samples, 0.24%)</title><rect x="870.5" y="69" width="3.8" height="15.0" fill="rgb(210,24,5)" rx="2" ry="2" />
<text  x="873.53" y="79.5" ></text>
</g>
<g >
<title>store_helper (203,788,026 samples, 0.14%)</title><rect x="825.3" y="325" width="2.1" height="15.0" fill="rgb(217,56,13)" rx="2" ry="2" />
<text  x="828.25" y="335.5" ></text>
</g>
<g >
<title>flatview_do_translate (1,118,890,967 samples, 0.75%)</title><rect x="1048.2" y="373" width="11.9" height="15.0" fill="rgb(236,146,35)" rx="2" ry="2" />
<text  x="1051.24" y="383.5" ></text>
</g>
<g >
<title>flatview_do_translate (203,695,611 samples, 0.14%)</title><rect x="628.5" y="357" width="2.1" height="15.0" fill="rgb(236,146,35)" rx="2" ry="2" />
<text  x="631.49" y="367.5" ></text>
</g>
<g >
<title>load_helper (3,301,515,805 samples, 2.22%)</title><rect x="717.3" y="373" width="35.1" height="15.0" fill="rgb(228,106,25)" rx="2" ry="2" />
<text  x="720.35" y="383.5" >lo..</text>
</g>
<g >
<title>find_memory_mapping_ppc (303,478,943 samples, 0.20%)</title><rect x="1537.9" y="373" width="3.2" height="15.0" fill="rgb(214,42,10)" rx="2" ry="2" />
<text  x="1540.89" y="383.5" ></text>
</g>
<g >
<title>helper_lookup_tb_ptr_ppc (995,706,961 samples, 0.67%)</title><rect x="810.9" y="293" width="10.6" height="15.0" fill="rgb(243,179,42)" rx="2" ry="2" />
<text  x="813.91" y="303.5" ></text>
</g>
<g >
<title>address_space_translate (1,457,938,687 samples, 0.98%)</title><rect x="997.1" y="373" width="15.5" height="15.0" fill="rgb(216,50,12)" rx="2" ry="2" />
<text  x="1000.15" y="383.5" ></text>
</g>
</g>
</svg>
